<?xml version="1.0" encoding="UTF-8" standalone="no"?>
<svg
   xmlns:dc="http://purl.org/dc/elements/1.1/"
   xmlns:cc="http://creativecommons.org/ns#"
   xmlns:rdf="http://www.w3.org/1999/02/22-rdf-syntax-ns#"
   xmlns:svg="http://www.w3.org/2000/svg"
   xmlns="http://www.w3.org/2000/svg"
   version="1.1"
   id="svg2"
   viewBox="0 0 744.09448819 1052.3622047"
   height="297mm"
   width="210mm">
  <defs
     id="defs4" />
  <metadata
     id="metadata7">
    <rdf:RDF>
      <cc:Work
         rdf:about="">
        <dc:format>image/svg+xml</dc:format>
        <dc:type
           rdf:resource="http://purl.org/dc/dcmitype/StillImage" />
        <dc:title></dc:title>
      </cc:Work>
    </rdf:RDF>
  </metadata>
  <g
     id="layer1">
    <g
       style="fill:none;fill-rule:evenodd;stroke:none;stroke-width:1px;stroke-linecap:butt;stroke-linejoin:round;stroke-opacity:1"
       id="g3366">
      <path
         points="2789.2129,1254.2275 3047.581,828.77146 2953.9465,819.48686 2598.4249,1206.5741 "
         d="m 2598.4249,1206.5741 190.788,47.6534 258.3681,-425.45604 -93.6345,-9.2846 z"
         style="fill:#afafde;fill-rule:evenodd;stroke:none;stroke-width:1px;stroke-linecap:butt;stroke-linejoin:round;stroke-opacity:1"
         id="path3376" />
      <path
         points="2598.4249,1206.5741 2953.9465,819.48686 2953.9465,802.12235 2598.4249,1168.1402 "
         d="m 2598.4249,1168.1402 0,38.4339 355.5216,-387.08724 0,-17.36451 z"
         style="fill:#353564;fill-rule:evenodd;stroke:none;stroke-width:1px;stroke-linecap:butt;stroke-linejoin:round;stroke-opacity:1"
         id="path3368" />
      <path
         points="3047.581,810.89237 3047.581,828.77146 2953.9465,819.48686 2953.9465,802.12235 "
         d="m 2953.9465,802.12235 93.6345,8.77002 0,17.87909 -93.6345,-9.2846 z"
         style="fill:#e9e9ff;fill-rule:evenodd;stroke:none;stroke-width:1px;stroke-linecap:butt;stroke-linejoin:round;stroke-opacity:1"
         id="path3378" />
      <path
         points="2789.2129,1213.1785 3047.581,810.89237 2953.9465,802.12235 2598.4249,1168.1402 "
         d="m 2598.4249,1168.1402 190.788,45.0383 258.3681,-402.28613 -93.6345,-8.77002 z"
         style="fill:#4d4d9f;fill-rule:evenodd;stroke:none;stroke-width:1px;stroke-linecap:butt;stroke-linejoin:round;stroke-opacity:1"
         id="path3370" />
      <path
         points="2789.2129,1254.2275 3047.581,828.77146 3047.581,810.89237 2789.2129,1213.1785 "
         d="m 2789.2129,1213.1785 0,41.049 258.3681,-425.45604 0,-17.87909 z"
         style="fill:#d7d7ff;fill-rule:evenodd;stroke:none;stroke-width:1px;stroke-linecap:butt;stroke-linejoin:round;stroke-opacity:1"
         id="path3374" />
      <path
         points="2789.2129,1213.1785 2789.2129,1254.2275 2598.4249,1206.5741 2598.4249,1168.1402 "
         d="m 2598.4249,1168.1402 190.788,45.0383 0,41.049 -190.788,-47.6534 z"
         style="fill:#8686bf;fill-rule:evenodd;stroke:none;stroke-width:1px;stroke-linecap:butt;stroke-linejoin:round;stroke-opacity:1"
         id="path3372" />
    </g>
    <g
       style="fill:none;fill-rule:evenodd;stroke:none;stroke-width:1px;stroke-linecap:butt;stroke-linejoin:round;stroke-opacity:1"
       id="g3394">
      <path
         points="274.88669,728.88889 786.54782,689.56448 344.7681,607.91765 38.316815,619.26375 "
         d="M 38.316815,619.26375 274.88669,728.88889 786.54782,689.56448 344.7681,607.91765 Z"
         style="fill:#afafde;fill-rule:evenodd;stroke:none;stroke-width:1px;stroke-linecap:butt;stroke-linejoin:round;stroke-opacity:1"
         id="path3404" />
      <path
         points="38.316815,619.26375 344.7681,607.91765 344.7681,345.72121 38.316815,329.3811 "
         d="m 38.316815,329.3811 0,289.88265 306.451285,-11.3461 0,-262.19644 z"
         style="fill:#353564;fill-rule:evenodd;stroke:none;stroke-width:1px;stroke-linecap:butt;stroke-linejoin:round;stroke-opacity:1"
         id="path3396" />
      <path
         points="786.54782,216.947 786.54782,689.56448 344.7681,607.91765 344.7681,345.72121 "
         d="M 344.7681,345.72121 786.54782,216.947 l 0,472.61748 -441.77972,-81.64683 z"
         style="fill:#e9e9ff;fill-rule:evenodd;stroke:none;stroke-width:1px;stroke-linecap:butt;stroke-linejoin:round;stroke-opacity:1"
         id="path3406" />
      <path
         points="274.88669,157.98673 786.54782,216.947 344.7681,345.72121 38.316815,329.3811 "
         d="M 38.316815,329.3811 274.88669,157.98673 786.54782,216.947 344.7681,345.72121 Z"
         style="fill:#4d4d9f;fill-rule:evenodd;stroke:none;stroke-width:1px;stroke-linecap:butt;stroke-linejoin:round;stroke-opacity:1"
         id="path3398" />
      <path
         points="274.88669,728.88889 786.54782,689.56448 786.54782,216.947 274.88669,157.98673 "
         d="m 274.88669,157.98673 0,570.90216 511.66113,-39.32441 0,-472.61748 z"
         style="fill:#d7d7ff;fill-rule:evenodd;stroke:none;stroke-width:1px;stroke-linecap:butt;stroke-linejoin:round;stroke-opacity:1"
         id="path3402" />
      <path
         points="274.88669,157.98673 274.88669,728.88889 38.316815,619.26375 38.316815,329.3811 "
         d="m 38.316815,329.3811 236.569875,-171.39437 0,570.90216 L 38.316815,619.26375 Z"
         style="fill:#8686bf;fill-rule:evenodd;stroke:none;stroke-width:1px;stroke-linecap:butt;stroke-linejoin:round;stroke-opacity:1"
         id="path3400" />
    </g>
    <g
       style="fill:none;fill-rule:evenodd;stroke:none;stroke-width:1px;stroke-linecap:butt;stroke-linejoin:round;stroke-opacity:1"
       id="g3408">
      <path
         points="-214.58815,520.62645 -214.58815,488.26427 -196.84043,524.09796 -196.84043,491.73578 "
         d="m -196.84043,491.73578 -17.74772,28.89067 0,-32.36218 17.74772,35.83369 z"
         style="fill:#8686bf;fill-rule:evenodd;stroke:none;stroke-width:1px;stroke-linecap:butt;stroke-linejoin:round;stroke-opacity:1"
         id="path3414" />
      <path
         points="-196.84043,524.09796 -183.66768,524.00757 -183.66768,491.76918 -196.84043,491.73578 "
         d="m -196.84043,491.73578 0,32.36218 13.17275,-0.0904 0,-32.23839 z"
         style="fill:#353564;fill-rule:evenodd;stroke:none;stroke-width:1px;stroke-linecap:butt;stroke-linejoin:round;stroke-opacity:1"
         id="path3410" />
      <path
         points="-214.58815,520.62645 -227.93086,520.70416 -183.66768,491.76918 -196.84043,491.73578 "
         d="m -196.84043,491.73578 -17.74772,28.89067 -13.34271,0.0777 44.26318,-28.93498 z"
         style="fill:#4d4d9f;fill-rule:evenodd;stroke:none;stroke-width:1px;stroke-linecap:butt;stroke-linejoin:round;stroke-opacity:1"
         id="path3412" />
      <path
         points="-227.93086,520.70416 -227.93086,488.21724 -183.66768,524.00757 -183.66768,491.76918 "
         d="m -183.66768,491.76918 -44.26318,28.93498 0,-32.48692 44.26318,35.79033 z"
         style="fill:#e9e9ff;fill-rule:evenodd;stroke:none;stroke-width:1px;stroke-linecap:butt;stroke-linejoin:round;stroke-opacity:1"
         id="path3420" />
      <path
         points="-214.58815,488.26427 -227.93086,488.21724 -183.66768,524.00757 -196.84043,524.09796 "
         d="m -196.84043,524.09796 -17.74772,-35.83369 -13.34271,-0.047 44.26318,35.79033 z"
         style="fill:#afafde;fill-rule:evenodd;stroke:none;stroke-width:1px;stroke-linecap:butt;stroke-linejoin:round;stroke-opacity:1"
         id="path3418" />
      <path
         points="-214.58815,488.26427 -227.93086,488.21724 -227.93086,520.70416 -214.58815,520.62645 "
         d="m -214.58815,520.62645 0,-32.36218 -13.34271,-0.047 0,32.48692 z"
         style="fill:#d7d7ff;fill-rule:evenodd;stroke:none;stroke-width:1px;stroke-linecap:butt;stroke-linejoin:round;stroke-opacity:1"
         id="path3416" />
    </g>
    <flowRoot
       style="font-style:normal;font-weight:normal;font-size:40px;line-height:125%;font-family:Arial;letter-spacing:0px;word-spacing:0px;fill:#000000;fill-opacity:1;stroke:none;stroke-width:1px;stroke-linecap:butt;stroke-linejoin:miter;stroke-opacity:1;-inkscape-font-specification:Arial;font-stretch:normal;font-variant:normal;"
       id="flowRoot3422"
       xml:space="preserve"><flowRegion
         id="flowRegion3424"><rect
           style="-inkscape-font-specification:Arial;font-family:Arial;font-weight:normal;font-style:normal;font-stretch:normal;font-variant:normal;"
           y="466.64792"
           x="51.42857"
           height="100"
           width="125.71429"
           id="rect3426" /></flowRegion><flowPara
         style="font-size:90px;-inkscape-font-specification:Arial;font-family:Arial;font-weight:normal;font-style:normal;font-stretch:normal;font-variant:normal;"
         id="flowPara3428">Min</flowPara></flowRoot>    <text
       id="text3438"
       y="540.93365"
       x="88.571426"
       style="font-style:normal;font-weight:normal;font-size:40px;line-height:125%;font-family:sans-serif;letter-spacing:0px;word-spacing:0px;fill:#000000;fill-opacity:1;stroke:none;stroke-width:1px;stroke-linecap:butt;stroke-linejoin:miter;stroke-opacity:1"
       xml:space="preserve"><tspan
         style="font-size:90px"
         y="540.93365"
         x="88.571426"
         id="tspan3440">Min</tspan></text>
    <flowRoot
       style="fill:black;stroke:none;stroke-opacity:1;stroke-width:1px;stroke-linejoin:miter;stroke-linecap:butt;fill-opacity:1;font-family:sans-serif;font-style:normal;font-weight:normal;font-size:90px;line-height:125%;letter-spacing:0px;word-spacing:0px;"
       id="flowRoot3498"
       xml:space="preserve"><flowRegion
         id="flowRegion3500"><rect
           style="font-size:90px;"
           y="480.93362"
           x="331.42856"
           height="88.571426"
           width="374.28571"
           id="rect3502" /></flowRegion><flowPara
         id="flowPara3504"></flowPara></flowRoot>    <text
       id="text3506"
       y="532.36218"
       x="374.28571"
       style="font-style:normal;font-weight:normal;font-size:40px;line-height:125%;font-family:sans-serif;letter-spacing:0px;word-spacing:0px;fill:#000000;fill-opacity:1;stroke:none;stroke-width:1px;stroke-linecap:butt;stroke-linejoin:miter;stroke-opacity:1"
       xml:space="preserve"><tspan
         style="font-size:90px"
         y="532.36218"
         x="374.28571"
         id="tspan3508">Adelaide</tspan></text>
  </g>
</svg>
